PathFileType	4	(X/Y/Z)	 s01c0101.trc
DataRate	CameraRate	NumFrames	NumMarkers	Units	OrigDataRate	OrigDataStartFrame	OrigNumFrames
200	200	4	47	mm	200	1251	2000
Frame#	Time	racr			lacr			c7			jug			rlel			rdr			llel			ldr			s2			lic			ric			lasi			rasi			rpsi			lpsi			rgt			lgt			rth1			rth2			rth3			rth4			rlfc			rsh1			rsh2			rsh3			rsh4			rlmal			rmmal			rcal			rtoe			rmt5			lth1			lth2			lth4			lth3			llfc			lsh1			lsh2			lsh3			lsh4			llmal			lcal			ltoe			lmt5			SBIKE			LBIKE			RBIKE			
		X1	Y1	Z1	X2	Y2	Z2	X3	Y3	Z3	X4	Y4	Z4	X5	Y5	Z5	X6	Y6	Z6	X7	Y7	Z7	X8	Y8	Z8	X9	Y9	Z9	X10	Y10	Z10	X11	Y11	Z11	X12	Y12	Z12	X13	Y13	Z13	X14	Y14	Z14	X15	Y15	Z15	X16	Y16	Z16	X17	Y17	Z17	X18	Y18	Z18	X19	Y19	Z19	X20	Y20	Z20	X21	Y21	Z21	X22	Y22	Z22	X23	Y23	Z23	X24	Y24	Z24	X25	Y25	Z25	X26	Y26	Z26	X27	Y27	Z27	X28	Y28	Z28	X29	Y29	Z29	X30	Y30	Z30	X31	Y31	Z31	X32	Y32	Z32	X33	Y33	Z33	X34	Y34	Z34	X35	Y35	Z35	X36	Y36	Z36	X37	Y37	Z37	X38	Y38	Z38	X39	Y39	Z39	X40	Y40	Z40	X41	Y41	Z41	X42	Y42	Z42	X43	Y43	Z43	X44	Y44	Z44	X45	Y45	Z45	X46	Y46	Z46	X47	Y47	Z47	
1251	6.2550	480.391439	1349.267996	-114.431848	522.096921	1294.293832	-407.183798	451.904069	1396.192397	-268.002525	453.743219	1232.004536	-259.036076	538.639539	1079.203569	-12.197923	711.893010	874.103197	-59.437563	554.751076	1040.821147	-536.295298	717.141409	859.471704	-444.037493	-67.346884	1168.576347	-277.376866	101.820410	1174.505910	-444.977224	87.389021	1194.143204	-114.404213	104.752186	1121.919849	-419.594468	116.586536	1146.035893	-146.401840	-41.418666	1214.255418	-228.068857	-41.095420	1209.838396	-333.547377	47.956873	1084.702622	-83.126975	50.046531	1029.300534	-459.471953	162.288063	1005.970469	-69.178552	237.658533	972.112854	-73.083956	316.787630	929.033529	-83.774885	262.263745	1019.938529	-90.413200	395.607750	848.388574	-106.593297	358.706600	734.937011	-74.009147	342.359309	651.730236	-77.024566	316.556911	566.863161	-85.583883	388.865554	641.133675	-113.810307	273.814205	448.964913	-100.382412	313.064632	462.631136	-181.207242	228.489740	416.324076	-155.666561	498.054913	400.662661	-127.853324	391.658181	368.856220	-62.834792	123.149287	922.140941	-466.108648	194.297564	873.000485	-454.964396	226.312296	915.905762	-449.976195	257.564363	817.474633	-437.166497	311.841901	726.374103	-414.615264	228.840891	654.536718	-448.572278	175.692795	586.761715	-442.135854	119.305462	522.746097	-428.102872	218.411626	556.237519	-409.256816	36.998775	429.017939	-412.758439	-18.032799	427.598044	-368.657031	190.558517	242.817284	-373.903024	93.816207	289.241362	-439.898989	-223.640006	893.849210	-251.512294	-12.209693	84.058143	-453.874323	-20.277164	80.838894	-53.900446	
1252	6.2600	480.770492	1348.744687	-114.054078	522.416666	1293.762306	-406.513280	452.165871	1395.674403	-267.364315	454.086160	1231.318377	-258.599559	538.490417	1078.637299	-11.380322	712.141457	873.856907	-59.430731	554.985811	1040.903724	-536.783320	717.115464	859.516168	-444.223427	-67.439200	1167.483289	-275.970755	101.966553	1174.565676	-444.502954	87.050094	1191.943038	-113.182756	104.862706	1121.694246	-418.787650	116.643931	1144.933245	-145.774477	-41.453121	1212.802200	-226.507435	-41.118460	1209.227873	-331.946485	48.186119	1081.590997	-82.400108	51.012360	1030.103457	-458.927994	161.854451	1001.069846	-68.619879	236.250227	965.215258	-72.745074	314.121663	920.060255	-83.750902	262.143304	1012.574671	-89.540758	390.991487	837.402367	-105.587843	355.367146	722.788317	-73.258666	340.581432	639.318767	-76.688720	316.570662	554.049447	-85.418110	386.923709	629.579800	-114.226853	275.603199	436.932731	-99.951892	314.867284	451.014287	-180.806694	230.428850	404.791735	-155.197907	500.296714	390.166635	-127.873711	394.153708	357.625510	-62.782893	125.925309	924.427091	-466.063071	197.798410	876.319371	-455.079029	229.143651	919.618126	-450.121747	261.647826	821.703305	-437.647910	317.486602	731.525477	-415.211475	233.287303	661.570522	-448.751027	178.741550	594.788857	-441.914816	121.606032	531.666923	-428.254594	221.339985	563.608617	-409.434129	37.224305	440.055879	-412.737120	-17.962879	439.457711	-368.600104	188.157921	251.931226	-373.958109	91.961379	299.482279	-439.739684	-223.594736	893.844169	-251.448119	-12.185122	84.065506	-453.872578	-20.265811	80.830904	-53.918813	
1253	6.2650	481.241561	1348.024239	-113.496362	522.704001	1293.097843	-405.822249	452.475621	1395.092114	-266.648690	454.430965	1230.848279	-258.100929	538.363404	1078.004029	-10.398035	712.308940	873.472000	-59.277102	555.154799	1040.858700	-537.358138	717.067955	859.574356	-444.444876	-67.477145	1166.335867	-274.395325	101.456579	1174.259245	-443.318221	86.575743	1189.500140	-111.856697	104.949335	1121.480014	-417.904334	116.634893	1143.333097	-144.203485	-41.401485	1211.319911	-224.882887	-41.473751	1208.818610	-330.214740	48.480658	1078.440471	-81.545095	51.860197	1030.855827	-458.296555	161.241395	996.182109	-68.080862	234.831883	958.272494	-72.014150	311.288773	911.068600	-83.673021	261.957804	1005.044452	-88.729901	386.076561	826.391194	-104.891099	351.996917	711.540646	-72.540437	338.928732	627.671715	-76.484085	316.767206	542.033334	-85.095844	385.816936	619.414101	-113.538357	276.659754	425.080420	-99.281374	316.885713	440.246249	-180.116892	231.922554	393.623801	-154.676866	501.984016	379.425753	-127.671294	396.014311	346.546990	-62.676163	128.649738	926.790234	-466.018041	201.284098	879.829231	-455.266737	231.668422	923.918243	-450.468074	266.228324	826.358531	-438.427359	323.329840	737.196310	-415.825298	237.895792	668.997319	-449.064117	182.281794	603.204642	-442.091630	124.267149	540.814102	-428.404412	224.494052	571.188745	-409.721789	38.141133	451.200511	-412.711155	-17.270397	451.499837	-368.563673	186.362227	261.093468	-373.920289	90.835955	309.985675	-439.701400	-223.558496	893.846143	-251.389682	-12.163492	84.051231	-453.852613	-20.269880	80.831800	-53.903984	
1254	6.2700	481.712535	1347.306386	-112.704771	523.090760	1292.266501	-405.122109	452.870492	1394.533112	-265.882044	454.858953	1230.311220	-257.494671	538.314963	1077.180632	-9.356803	712.121659	872.894502	-58.530590	555.306479	1040.613448	-537.928997	717.034003	859.628008	-444.648269	-67.418310	1165.161480	-272.713979	101.549514	1173.852813	-442.575865	86.311522	1186.976476	-110.495080	105.073632	1121.242145	-416.865304	116.755730	1141.813410	-143.056304	-41.230696	1209.791018	-223.167548	-41.709705	1208.163798	-328.143064	48.828700	1075.334695	-80.521521	52.573627	1031.627382	-457.710544	160.644119	991.487823	-67.374669	233.219751	951.523959	-71.325431	308.226452	902.194703	-83.607972	261.583158	997.615101	-87.882705	381.340591	815.881851	-103.969023	348.445654	701.156675	-71.872517	337.226065	617.123663	-76.006064	316.955789	531.031054	-84.739960	384.166939	609.938494	-113.294981	277.524684	413.623867	-98.853638	317.552183	428.315024	-179.890868	232.950410	382.804238	-154.122404	503.130222	368.449392	-127.486372	397.312934	335.456860	-62.575748	131.315837	929.237028	-465.958453	204.768308	883.643158	-455.627088	234.317713	928.311601	-450.695451	270.559111	831.116266	-439.307485	329.381409	743.534288	-416.382147	242.765165	676.276529	-449.108315	186.153314	611.396816	-442.082374	127.135624	550.078522	-428.473929	227.774139	579.015211	-409.862948	39.591992	462.295667	-412.604554	-15.949037	463.296141	-368.324508	185.232220	270.405719	-373.845514	90.467948	320.599854	-439.596451	-223.522803	893.845842	-251.312206	-12.149203	84.066433	-453.833388	-20.262857	80.817793	-53.884777	
